<svg width="67" height="66" viewBox="0 0 67 66" fill="none" xmlns="http://www.w3.org/2000/svg">
<g filter="url(#filter0_d_602_229)">
<path d="M16.5237 52.0817C16.6199 52.2122 16.7434 52.3357 16.8945 52.4524C17.1245 52.6206 17.3442 52.7854 17.5707 52.9433C17.7801 53.1184 17.9929 53.2866 18.2023 53.4616C18.3431 53.5749 18.4907 53.6539 18.6417 53.726C27.7624 60.2103 35.76 63.6569 42.4202 63.9829C42.6227 63.9932 42.8252 64 43.0278 64C46.9993 64 50.8131 62.1121 53.319 58.8579L56.2539 55.0613C57.9599 52.8542 57.5549 49.6652 55.3407 47.9626L46.474 41.1178C45.403 40.2906 44.0848 39.9301 42.7393 40.0983C41.3937 40.2734 40.2094 40.9496 39.3753 42.024L36.4746 45.7759C36.3614 45.9166 36.3442 45.9166 36.2893 46.0574C36.2206 46.1466 36.0009 46.3388 35.5238 46.4075C34.6553 46.5311 32.0534 46.3389 26.578 41.7254L26.0768 41.31C20.2859 37.2252 19.4414 34.7536 19.3453 33.8852C19.2938 33.4114 19.4346 33.1471 19.4963 33.0579C19.6199 32.9789 19.6096 32.9515 19.716 32.8107L22.6167 29.0588C24.3227 26.8517 23.9177 23.6627 21.7035 21.9601L12.6857 14.9918C10.4785 13.2857 7.28953 13.6908 5.58692 15.9049L2.65202 19.7014C0.11187 22.9968 -0.677699 27.5759 0.606175 31.6544C2.5971 38.022 7.94921 44.8873 16.5237 52.0817Z" fill="white"/>
<path d="M28.3083 12.7849C26.8666 12.9703 25.8471 14.2884 26.0325 15.737C26.2179 17.1856 27.536 18.1983 28.9846 18.0129C33.5981 17.4224 38.1668 18.6616 41.8506 21.5005C45.5339 24.3462 47.8887 28.4517 48.4757 33.065C48.6439 34.3935 49.7836 35.3684 51.0846 35.3684C51.1979 35.3684 51.3146 35.3581 51.4278 35.3512C52.8695 35.1658 53.8891 33.8477 53.7037 32.3991C52.1075 19.9901 40.7174 11.1847 28.3083 12.7849Z" fill="#FFC5CF"/>
<path d="M26.7087 0.290131C25.267 0.475497 24.2475 1.79361 24.4329 3.24225C24.6183 4.68395 25.9261 5.70349 27.385 5.51807C43.7757 3.4173 58.8553 15.0606 60.9635 31.4653C61.1317 32.7938 62.2645 33.7687 63.5723 33.7687C63.6856 33.7687 63.8023 33.7584 63.9156 33.7515C65.3573 33.5661 66.3768 32.248 66.1914 30.7994C63.713 11.5008 46.0002 -2.18798 26.7087 0.290131Z" fill="#FFC5CF"/>
</g>
<defs>
<filter id="filter0_d_602_229" x="0" y="0.000244141" width="66.2129" height="65.9998" filterUnits="userSpaceOnUse" color-interpolation-filters="sRGB">
<feFlood flood-opacity="0" result="BackgroundImageFix"/>
<feColorMatrix in="SourceAlpha" type="matrix" values="0 0 0 0 0 0 0 0 0 0 0 0 0 0 0 0 0 0 127 0" result="hardAlpha"/>
<feOffset dy="2"/>
<feComposite in2="hardAlpha" operator="out"/>
<feColorMatrix type="matrix" values="0 0 0 0 0 0 0 0 0 0 0 0 0 0 0 0 0 0 0.3 0"/>
<feBlend mode="normal" in2="BackgroundImageFix" result="effect1_dropShadow_602_229"/>
<feBlend mode="normal" in="SourceGraphic" in2="effect1_dropShadow_602_229" result="shape"/>
</filter>
</defs>
</svg>
